<svg version="1.1" xmlns="http://www.w3.org/2000/svg" xmlns:xlink="http://www.w3.org/1999/xlink" width="591.44308" height="657.47968" viewBox="0,0,591.44308,657.47968"><g transform="translate(54.31222,275.78328)"><g data-paper-data="{&quot;isPaintingLayer&quot;:true}" fill-rule="nonzero" stroke-linecap="butt" stroke-linejoin="miter" stroke-miterlimit="10" stroke-dasharray="" stroke-dashoffset="0" style="mix-blend-mode: normal"><path d="M-27.78,380.6964v-401.39281h535.56001v401.39281z" fill="#00c5bb" stroke="#05d400" stroke-width="2"/><path d="M425.21185,316.55635l-34.68946,0.10015l-0.98939,-342.68986l34.68946,-0.10015z" fill="#000000" stroke="#ffffff" stroke-width="2"/><path d="M228.89341,311.55635l-34.68946,0.10015l-0.98939,-342.68986l34.68946,-0.10015z" fill="#000000" stroke="#ffffff" stroke-width="2"/><path d="M-6.82767,50.10068v-34.68961h490.91052v34.68961z" fill="#000000" stroke="#ffffff" stroke-width="2"/><path d="M-26.00528,220.13912v-34.6896h557.13614v34.68961z" fill="#000000" stroke="#ffffff" stroke-width="2"/><path d="M193.43957,347.07835v-34.6896h342.69129v34.6896z" fill="#000000" stroke="#ffffff" stroke-width="2"/><path d="M173.86624,-274.63079l34.68929,-0.14664l-76.43699,233.07569l-1.20355,289.3779l-53.59663,-0.57242l-3.81637,-204.58833l-38.3222,-0.56177l-4.22699,206.35123l-74.84919,-0.85823l-9.15401,38.92338c0,0 190.22982,0.41261 199.66798,0.49784c10.872,0.09818 18.31176,-1.26876 21.70275,-11.17632c1.37742,-4.02448 2.0868,-22.62444 2.0868,-22.62444z" fill="#000000" stroke="#ffffff" stroke-width="2"/><path d="M6.83792,219.1534v-32.58721h197.62565v32.58721z" fill="#000000" stroke="none" stroke-width="0"/><path d="M4.73552,48.85896v-31.53601h320.61608v31.53601z" fill="#000000" stroke="none" stroke-width="0"/><path d="M195.00277,330.58063v-347.94729h32.58721v347.94729z" fill="#000000" stroke="none" stroke-width="0"/><path d="M391.32122,320.86382v-338.48648h32.58721v338.48648z" fill="#000000" stroke="none" stroke-width="0"/></g></g></svg>