<svg version="1.1" xmlns="http://www.w3.org/2000/svg" xmlns:xlink="http://www.w3.org/1999/xlink" width="600.16875" height="657.47968" viewBox="0,0,600.16875,657.47968"><g transform="translate(54.31222,275.78328)"><g data-paper-data="{&quot;isPaintingLayer&quot;:true}" fill-rule="nonzero" stroke-linejoin="miter" stroke-miterlimit="10" stroke-dasharray="" stroke-dashoffset="0" style="mix-blend-mode: normal"><path d="M-27.78,380.69641v-401.39281h535.56001v401.39281z" fill="#00c5bb" stroke="#05d400" stroke-width="2" stroke-linecap="butt"/><path d="M425.21185,316.55636l-34.68946,0.10015l-0.98939,-342.68986l34.68946,-0.10015z" fill="#000000" stroke="#ffffff" stroke-width="2" stroke-linecap="butt"/><path d="M228.89341,311.55636l-34.68946,0.10015l-0.98939,-342.68986l34.68946,-0.10015z" fill="#000000" stroke="#ffffff" stroke-width="2" stroke-linecap="butt"/><path d="M-6.82767,50.10069v-34.68961h490.91052v34.68961z" fill="#000000" stroke="#ffffff" stroke-width="2" stroke-linecap="butt"/><path d="M-26.00528,220.13913v-34.6896h557.13614v34.68961z" fill="#000000" stroke="#ffffff" stroke-width="2" stroke-linecap="butt"/><path d="M193.43957,347.07836v-34.6896h342.69129v34.6896z" fill="#000000" stroke="#ffffff" stroke-width="2" stroke-linecap="butt"/><path d="M170.40713,253.06711c0,0 -0.70938,18.59996 -2.0868,22.62444c-3.39099,9.90756 -10.83075,11.2745 -21.70275,11.17632c-9.43816,-0.08523 -199.66798,-0.49784 -199.66798,-0.49784l9.15401,-38.92338l74.84919,0.85823l4.22699,-206.35123l38.3222,0.56177l3.81637,204.58833l53.59663,0.57242l1.20355,-289.3779l76.43699,-233.07569l-34.68929,0.14664z" fill="#000000" stroke="#ffffff" stroke-width="2" stroke-linecap="butt"/><path d="M6.83792,219.15341v-32.58721h197.62565v32.58721z" fill="#000000" stroke="none" stroke-width="0" stroke-linecap="butt"/><path d="M4.73552,48.85897v-31.53601h320.61608v31.53601z" fill="#000000" stroke="none" stroke-width="0" stroke-linecap="butt"/><path d="M195.00277,330.58063v-347.94729h32.58721v347.94729z" fill="#000000" stroke="none" stroke-width="0" stroke-linecap="butt"/><path d="M391.32122,320.86383v-338.48648h32.58721v338.48648z" fill="#000000" stroke="none" stroke-width="0" stroke-linecap="butt"/><path d="M151.90356,56.21736v121.93924" fill="none" stroke="#feff00" stroke-width="1.5" stroke-linecap="round"/><path d="M211.56598,58.06376v121.93924" fill="none" stroke="#feff00" stroke-width="1.5" stroke-linecap="round"/><path d="M407.34523,54.11496v128.24644" fill="none" stroke="#feff00" stroke-width="1.5" stroke-linecap="round"/><path d="M382.11642,34.14215h-153.47524" fill="none" stroke="#feff00" stroke-width="1.5" stroke-linecap="round"/><path d="M171.65925,32.56252h4.22746" fill="none" stroke="#feff00" stroke-width="1.5" stroke-linecap="round"/><path d="M178.52887,32.56252h3.17059" fill="none" stroke="#feff00" stroke-width="1.5" stroke-linecap="round"/><path d="M184.87005,32.56252h3.17059" fill="none" stroke="#feff00" stroke-width="1.5" stroke-linecap="round"/><path d="M170.02517,202.82788h2.5" fill="none" stroke="#feff00" stroke-width="1.5" stroke-linecap="round"/><path d="M175.02517,202.82788h3" fill="none" stroke="#feff00" stroke-width="1.5" stroke-linecap="round"/><path d="M181.02517,202.82788l3.5,-0.25" fill="none" stroke="#feff00" stroke-width="1.5" stroke-linecap="round"/><path d="M187.52517,202.82788h4.25" fill="none" stroke="#feff00" stroke-width="1.5" stroke-linecap="round"/><path d="M79.26666,267.30401c0,0 54.91164,1.1573 67.92338,-2.73737c3.07302,-0.91982 2.02703,-44.53946 2.02703,-44.53946" fill="none" stroke="#feff00" stroke-width="1.5" stroke-linecap="round"/><path d="M-39.1649,266.74547l66.09108,1.44725" fill="none" stroke="#feff00" stroke-width="1.5" stroke-linecap="round"/><path d="M-19.86823,204.51373l47.27683,-0.96483" fill="none" stroke="#feff00" stroke-width="1.5" stroke-linecap="round"/><path d="M52.69236,51.16625v128.80524" fill="none" stroke="#feff00" stroke-width="1.5" stroke-linecap="round"/><path d="M0.10895,34.25883l31.8395,0.48242" fill="none" stroke="#feff00" stroke-width="1.5" stroke-linecap="round"/><path d="M75.84836,33.294h54.9955" fill="none" stroke="#feff00" stroke-width="1.5" stroke-linecap="round"/><path d="M209.48488,-22.66633v35.21641" fill="none" stroke="#feff00" stroke-width="1.5" stroke-linecap="round"/><path d="M154.00697,-53.85107l-2.8945,70.43283" fill="none" stroke="#feff00" stroke-width="1.5" stroke-linecap="round"/><path d="M405.88057,-18.63466v28.945" fill="none" stroke="#feff00" stroke-width="1.5" stroke-linecap="round"/><path d="M430.96623,32.50151l62.23175,1.92967" fill="none" stroke="#feff00" stroke-width="1.5" stroke-linecap="round"/><path d="M434.36777,201.78337h96.00091" fill="none" stroke="#feff00" stroke-width="1.5" stroke-linecap="round"/><path d="M382.5206,201.99382l-150.99641,0.48242" fill="none" stroke="#feff00" stroke-width="1.5" stroke-linecap="round"/><path d="M210.29786,224.41052v81.52841" fill="none" stroke="#feff00" stroke-width="1.5" stroke-linecap="round"/><path d="M229.11211,330.05976l159.19749,-0.96483" fill="none" stroke="#feff00" stroke-width="1.5" stroke-linecap="round"/><path d="M428.84412,329.00876l116.26241,-1.44725" fill="none" stroke="#feff00" stroke-width="1.5" stroke-linecap="round"/><path d="M407.13537,221.62562l0.48242,87.79983" fill="none" stroke="#feff00" stroke-width="1.5" stroke-linecap="round"/></g></g></svg>