<svg version="1.1" xmlns="http://www.w3.org/2000/svg" xmlns:xlink="http://www.w3.org/1999/xlink" width="492.5" height="371.5" viewBox="0,0,492.5,371.5"><g transform="translate(6.25,5.75)"><g data-paper-data="{&quot;isPaintingLayer&quot;:true}" fill-rule="nonzero" stroke-linecap="butt" stroke-linejoin="miter" stroke-miterlimit="10" stroke-dasharray="" stroke-dashoffset="0" style="mix-blend-mode: normal"><path d="M-1.5,361v-362h483v362z" fill="#00c5bb" stroke="#00c5bb" stroke-width="9.5"/><path d="M56.19443,229.93402c5.37941,0.67127 23.40316,-33.49383 45.74002,-56.23744c17.17344,-17.48617 78.27166,-29.25644 99.33019,1.83528c8.02415,11.8472 36.51484,89.47553 64.94148,89.30032c28.21953,-0.17393 73.32295,26.21446 94.71713,-4.0898c24.78585,-35.10847 31.84439,-214.35933 49.82947,-208.53122c12.14363,3.93518 45.31213,-21.0562 52.19471,-5.49474c32.54219,73.57773 6.98046,285.93832 10.16543,296.64702c2.76203,9.28668 -165.64009,35.66977 -256.90976,9.54026c-32.72688,-9.36935 -15.01725,-74.49891 -54.37104,-89.16158c-39.35379,-14.66267 -75.73402,33.94876 -81.07906,38.69476c-11.31279,10.04494 -51.56415,76.80537 -65.68707,29.83646c-11.25152,-37.41946 -4.3068,-318.77637 5.07866,-328.36672c2.58467,-2.6411 436.38819,4.58949 436.46594,4.9333c0.32255,1.42632 10.64488,48.01386 8.41224,48.21337c-104.36499,9.32608 -396.74088,-13.21795 -394.4142,10.64535c7.21009,73.94941 -15.12805,162.1463 -14.41416,162.23538z" fill="#000000" stroke="#ffffff" stroke-width="2"/><path d="M406.19443,90.93402c0,0 -1,-30.56301 -1,-39c0,-4.053 1,-9 1,-9l46,-11c0,0 7.93318,6.03928 10.95916,15.0008c3.16925,9.38584 1.4403,21.78332 1.54988,25.01584c0.36659,10.81433 -10.50904,18.98336 -10.50904,18.98336z" fill="#000000" stroke="none" stroke-width="0"/><path d="M323.27531,58.26247v-9.95411h8.64436v9.95411z" fill="#ffffff" stroke="none" stroke-width="0"/><path d="M331.94261,48.59326v-9.95411h8.64436v9.95411z" fill="#ffffff" stroke="none" stroke-width="0"/><path d="M323.3212,38.6621v-9.95411h8.64436v9.95411z" fill="#ffffff" stroke="none" stroke-width="0"/><path d="M340.63286,57.80741v-9.95411h8.64436v9.95411z" fill="#ffffff" stroke="none" stroke-width="0"/><path d="M340.65581,38.70799v-9.95411h8.64436v9.95411z" fill="#ffffff" stroke="none" stroke-width="0"/><path d="M332.0344,28.77683v-9.95411h8.64436v9.95411z" fill="#ffffff" stroke="none" stroke-width="0"/><path d="M340.7017,19.10762v-11.26386h8.64436v11.26386z" fill="#ffffff" stroke="none" stroke-width="0"/><path d="M323.17399,19.39252v-11.78776h8.64436v11.78776z" fill="#ffffff" stroke="none" stroke-width="0"/></g></g></svg>